<?xml version="1.0" encoding="utf-8"?>
<!-- Generator: Adobe Illustrator 19.0.1, SVG Export Plug-In . SVG Version: 6.00 Build 0)  -->
<svg version="1.1" id="Layer_1" xmlns="http://www.w3.org/2000/svg" xmlns:xlink="http://www.w3.org/1999/xlink" x="0px" y="0px"
	 viewBox="0 0 2000 3000" style="enable-background:new 0 0 2000 3000;" xml:space="preserve">
<style type="text/css">
	.st0{clip-path:url(#SVGID_2_);}
</style>
<g id="Layer_1_1_">
</g>
<g id="Layer_2">
	<g>
		<g>
			<defs>
				<polygon id="SVGID_1_" points="-99,924.9 868.4,-214.2 2129,753.4 2129,2384.5 1534,3308.5 -99,2241 				"/>
			</defs>
			<clipPath id="SVGID_2_">
				<use xlink:href="#SVGID_1_"  style="overflow:visible;"/>
			</clipPath>
			<g class="st0">
				<g>
					<path d="M1871.4,796.3c-11.8-20.1-24.6-31.9-38.2-42.6c6.5-1.8,11.9-0.2,17.7,5.2c20.5,18.4,42.2,33.2,63.9,47.6
						c7.3,4.9,14.5,9.7,21.3,16c3.3,3.1,8.3,5.5,6.1,15c-0.7,2.9,0.6,4.4,2.1,5.2c15.5,9.4,19.8,27.8,19.5,53.2
						c-0.4,38.5,2.9,76.9,5.6,115c1.8,26.7,0.1,54.2,5.1,80.3c2.9,15.4-0.9,28.6-1.8,43c-3.2,48.4,1.2,96.1,5.9,143.7
						c3.6,37.4,2.8,74.8,0.5,112.3c-2.2,35.4-3,71,0.1,106.6c1.9,21.7-0.3,42.2-5.3,62.3c-4.9,19.9-5.8,39.6-3.3,61
						c3.2,29,2.1,58.4,0.9,87.7c-1.7,43.8-0.1,87.5,3.8,131.1c6,67.5,5.7,134.9,2.2,202.9c-1.4,27.5-6.6,54.4-4.8,83
						c0.9,14.9-1.7,31.2-1.8,47.1c-0.1,12.1,1,23.1,5.3,34.3c3.5,9.2-2.4,19.1-5.8,24.1c-15.9,23.5-27.5,52.4-40,79.8
						c-14.7,32-34.2,57.1-50,87.4c-8.5,16.2-17.4,32-25.7,48.4c-9.7,19.3-22.6,33.2-34,49.7c-20.5,29.8-42.2,57.4-63.5,85.6
						c-13.1,17.2-24.6,37.1-38.6,52.4c-9.6,10.5-16.1,26-23.3,40c-18,34.5-39.7,63.3-58.3,96.9c-12.9,23.3-28.2,41.9-43.2,61.3
						c-6.7,8.7-12.2,19.1-16.6,30.1c-7.2,17.8-17.6,30.9-25.2,47.9c-3.6,8.1-8.3,3.6-12.4,1.5c-7.2-3.7-14.1-8.6-21.2-12.6
						c-1.3-0.8-3.2-1.8-4.2-0.8c-7.8,7.9-12.4,8.3-21.9,1.6c-15-10.5-28-26.5-42.6-38.2c-20.2-16-40.1-32.5-62-43.2
						c-25-12.3-49.3-29-73.6-44.8c-38.9-25.2-79.7-41.3-119-64.7c-28-16.7-56.1-33-84-49.3c-6.2-3.6-12.3-7.9-19.3-6
						c-2.4,0.6-5.7-0.8-7.7-3.4c-13.4-17.2-29.9-22.7-45.6-30.4c-40.3-20.1-79.8-44.5-118.8-70.1c-37.4-24.4-75.3-46.8-113.2-68.8
						c-12.5-7.3-25.3-12.3-38.1-18.1c-12.8-5.8-24.9-14.2-36.8-23.8c-5.7-4.5-11.6-8.6-17.6-11c-16-6.1-30.2-18.6-44.8-30.3
						c-12.2-9.5-25-16.3-37.9-23.5c-47-26-95.5-45-141.8-74.1c-17.6-11-34-26.7-50.3-42.1c-12.9-12-27.8-18.3-42-26.7
						c-24.6-14.6-50.8-24.1-73.5-44.2c-25.9-22.8-55.9-29.1-80.6-54.4c-23.6-24.1-52-32.4-74.6-58.4
						c-37.1-42.9-78.6-72.8-118.7-106.8c-2.8-2.4-5.4-6.1-8.1-9.1c-2-2.3-4.6-6.6-6-5.8c-10.8,6.1-9.2-6.6-10.2-15.9
						c-6-55.7-8.3-111.8-8.6-168.1c-0.3-43.4-3.2-86.6-2-130.1c0.5-16.8,1.1-33.7,1.6-50.5c1.1-39.6-4-78.6-4.6-118.1
						c-0.3-22.2-0.9-44.3-0.8-66.5c0.6-78.1-5.6-156-3.4-234.1c0.1-2.9,0.3-6.8-0.7-8.4c-8.4-13.6-2.3-24.4,2.4-35.4
						c11.3-25.6,22.1-51.6,34.2-76.2c9.3-19.1,22.8-31.4,34.1-47.4c20-28.5,37.8-60.7,59.3-89.6c-10.9,3.4-19.6,10.8-28.8,15.5
						c3-5.3,6.2-10.8,10.6-12.3c14.6-4.7,25.3-21.2,38.4-30.9c11.5-8.4,19-25.1,26.3-41.1c3.8-8.3,7.8-12.8,14.5-8.4
						c6.2,4,10.3-3.4,14.3-8.7c6.9-9.5,15.3-13.6,23.6-19.9c0.5,7.9-2.4,8.1-4.5,9.7c-4.3,3.6-8.8,6.5-12.7,11
						c-3.6,4.2-11.5,8.3-9.1,14.7c2.9,7.8,9.1,13.4,16.3,15.9c9.5,3.2,15.1-4,20.4-13.6c21.6-39.3,47.5-71,71.8-105.7
						c11.2-16,25.6-25.4,34.3-46.3c2.3-5.5,1.8-13.6,6.4-16.8c6.5-4.7,12.8-11.5,19.5,0.3c2.3,4.2,5.6,4.7,9.7,1.1
						c5.4-4.5,12.2-1,18-0.6c5.7,0.5,9.5-1.6,12.6-7.3c5.2-9.4,10.8-18,14.9-29c6.5-17.8,16.4-31.6,26.8-42.6
						c13.4-14.1,21.4-34.8,31.5-52.9c2.2-4,4.1-8.4,6.3-12.3c12.3-21,12.8-21.2,27.9-6.1c1.8,1.8,3.5,3.7,5.4,5.3
						c7.3,5.8,13.2,7.4,20.7-3.2c15.3-21.8,30.4-43,42.9-69.6c7.6-16.2,20.2-26,28.6-41.4c10.4-18.9,23.1-33.5,35.3-48.2
						c8.6-10.4,18.5-19.7,28.2-28.8c7.3-7,14.1-0.8,22.2,2.8c-5.2,8.3-9.5,1.8-13.8,2.1c12.1,18.4,25.4,16.8,35.9-1.9
						c11.8-21,24.7-39.8,39.1-57c10.4-12.5,20-29,29.4-44.3c4.3-7,8.2-13.8,13.7-18.6c9.9-9.1,16.6-23.3,23-38
						c2.3-5.3,4.6-8.1,6.9,0.2c5,17.3,16.4,17.5,25.4,23.8c1,0.6,3.1-0.8,4-2.3c11.6-20.9,27.3-35.6,36.4-60
						c11.3-30.1,27.1-51.3,45.9-68.3c6.7-6,16.5-10.5,12.1-29.8c-0.9-4,2.9-3.4,4.7-1.3c13.6,15.7,29.5,20.4,45.3,27.3
						c17.9,7.9,34.5,22.8,50.1,39.2c13.6,14.4,28.2,26.4,43.4,33.8c19.1,9.2,35.8,25.2,53.7,37.7c2.8,1.9,3.2,6.5,4,10.7
						c2.2,12.6,2.5,27.2,12.2,32.8c2.4,23,16.6,19.3,25.3,25.4c30.9,22,62.2,42.9,96.1,53.2c10.7,3.2,21,15.5,32.3,20.5
						c6.9,2.9,13.8,5.7,20.3,11.3c4.3,3.7,7.2,7.6,6.2,15.4c-1.1,7.9,1.6,13.1,5.2,14.6c6.9,2.8,6.6,10.7,5.7,18
						c-1,7.6,0.8,10.8,4.7,12.9c3.4,1.9,6.8,4.7,10.2,5.3c30.1,5,58.8,20.2,85.6,40.1c27.7,20.5,57.5,28.2,85.6,45.1
						c11.2,6.8,13.3,7.9,10.1,26.5c-2.6,15.2,4.6,24.6,6,37.2c0.6,5.2,5.2,6.8,9.2,7c8.5,0.2,16.6,3.1,24.4,9.2
						c8.9,7.1,18.2,11.6,28.4,14.1c19.2,4.7,36.7,18.3,54.5,29.8c15.9,10.4,31.4,22.2,48.5,27.5c12.6,3.9,16,12.5,15.5,32.7
						c-0.4,14.4-0.3,29-0.3,43.4c0,4.5-0.2,9.1,4.3,10.5c23.5,7.3,45.1,23.6,66.5,40.1C1838.5,779.6,1853.9,787.7,1871.4,796.3z
						 M692.6,1370c0.1-7.9,3.1-13.8,6.5-18.4c7.5-10,13.5-21.8,18.4-35.3c1.6-4.4,4.2-8.3,6.6-11.6c13.7-19.4,28.4-37.2,41-58.2
						c18.2-30.6,35-63.4,52.4-95.3c9.9-18,9.4-18-4.7-27.3c-15.5-10.2-31.1-20.1-45.6-34c-8.7-8.3-18.1-16.2-27.9-19.9
						c-16.6-6.5-33.5-11.2-48.6-24.9c-1.5-1.5-3.8-3.1-4-5.2c-0.4-4.4,3.9-0.5,4.3-3.9c-13.3-17-29.9-5.3-44.2-13.6
						c-1-0.6-2.8,1.3-4.1,2.6c-3.5,3.9-6.7,8.9-8,15.2c-1.6,7.9,5.7,8.7,6.3,15.4c-2.4,2.3-4.4,0.3-6.4-0.5
						c-6.2-2.3-11.6-3.6-8.7,11.6c1.3,7.3-3.9,7.6-5.9,11.2c-2.2,4-5.3,2.1-7-1.8c-3.5-7.4-6.7-4.5-9.6,0.6
						c-5.5,9.5-10.2,20.4-16.2,29.1c-14.8,21.8-29.1,44.5-44.2,66c-16.5,23.6-31.8,49.5-50,70.4c-5.5,6.3-9.2,15.2-10.3,26.5
						c12.1-14.4,23.6-29.8,35-45.3c2-2.8,3.2-8.1,6.4-3.9c2.6,3.4,1.6,7.9,0,11.6c-0.8,1.9-1.8,4-3,5.3c-16,17.3-28.4,41.7-45.4,57
						c-3.6,3.2-8.1,7.8-7.8,14.7c0.3,7.6,5.9,7,9.3,9.1c22.4,13.8,47.1,15.7,68.4,35.4c16.1,14.9,33.7,23.5,52.1,27.3
						c3.2,0.6,7.1,1.1,9.1,5.5c6.1,13.3,15.9,14.1,24.2,20.4c6.3,4.7,11.3-4.7,16.6-0.2c7.1,6,14.9,7.6,22.6,10
						c13.1,4.2,14.6,1.5,11.7-18.9C679.2,1378.1,680.5,1374.9,692.6,1370c2,18.8-2.2,38.2,1.9,57.3c1.1,5-1.2,12.5-5.4,9.9
						c-9.1-6-19.2-1.8-27.7-6c-23.9-11.5-48.1-21.7-71.6-35.8c-22.3-13.4-43.1-32.8-66.7-40.3c-4.1-1.3-7.9-4.5-11.9-6.8
						c-15.6-9.2-31.1-18.8-46.7-27.3c-9.1-5-10.8-2.8-10.9,12.1c-0.1,7.8,0,15.4-0.1,23.1c-0.1,6.8-2.3,9.9-6.5,7.8
						c-12.1-6.1-24.7-10.2-36.3-17.3c-37.6-23.3-76.6-40.8-113-68.8c-11.5-8.7-24.5-11-35.1-23c-3.3-3.9-7.7-9.9-11.3-6
						c-2.9,3.2-0.6,11.8-0.1,17.8c0.8,8.9,1.5,18.3-3.4,23.8c-5.4,6-13.1,4.9-17.2-0.6c-10.4-13.8-23.6-16.8-34.7-27.2
						c-19.6-18.4-40.7-30.9-61-46.9c-9.4-7.4-19.4-13.4-30.3-12.9c14.8,8.4,28.3,21.7,43,30.3c2.4,1.5,5.9,3.4,4.7,8.7
						c-1.2,5-4.1,2.1-6.2,0.5c-31.8-23.1-65.1-41.1-96.1-67.1c-6.8-5.7-13.8-9.7-21.4-11.3c-9.2-2.1-11,0-9.5,15
						c1.5,15.4,1.7,30.7,1.2,46.1c-1.3,39.2,2.1,77.8,3.4,116.7c1.5,40.8,3.5,81.9,3.1,122.6c-0.8,80.4-5.3,160.7-3.1,241.1
						c0.6,22.3-0.3,45.8,5.7,66.8c5.6,19.9,4.2,40,2,59.5c-2.6,23.3-1.2,46-1.2,69.1c0,31.4,11,49.2,27.6,61.5
						c44.2,32.8,86.4,73.3,133.1,97.4c1.4,0.8,2.8,1.9,4.1,3.1c28.9,28.3,60.2,49,90.6,72.2c25.2,19.3,53.2,28.5,77.3,52.1
						c5.6,5.5,11.9,8.6,18.5,11c16.7,6.1,32.8,14.4,47.2,31.1c27.9,32.5,58.9,56.1,91.4,74.8c27.1,15.5,55.6,21.4,82.6,37.2
						c8.8,5.2,17,13.3,26.1,16.5c31.9,11.5,61.5,33.8,91.7,52.6c24.2,15,48.5,31.6,72.4,48.5c27.8,19.7,57,34.3,86.2,48.1
						c24.3,11.5,49.6,19.6,72.5,36.1c46.2,33.2,94.7,54.7,142.6,79.1c18.5,9.4,38.6,9.9,55.6,28c10.6,11.2,24.1,11.8,35.7,19.9
						c26.8,18.8,52.8,39.8,81.2,52.1c20.2,8.7,37.6,27.7,57,40c10.3,6.6,21.5,9.4,31.5,17.3c19.2,15.2,38.6,28.8,59.3,38.5
						c15.2,7.1,29.7,17.3,43.6,30.7c13.7,13.1,28.6,27.5,46.3,23.9c1.5-0.3,3.2-0.8,3.3,2.8c0.3,9.7,5.2,7.9,8.7,8.6
						c2.2,0.5,4.8-1.9,6.3,2.8c3.1,9.1,8.8,8.1,14.9,10.5c-2.4-15.7-1.1-29.6-0.9-43.7c0.6-42.7,3.3-85.8-2.3-128.3
						c-0.6-4.2-1.8-8.7,1.2-11.8c4.5-4.5,3.5-11.6,3.8-18.3c1.8-57.6,1.7-115.2,1.5-173c-0.1-13.4,0.4-27-0.7-40.4
						c-3.8-47.7-4.9-95.5-2.1-143.2c1.6-28.5,2.6-57,0.1-85.1c-6.7-74.1-1-147.9,1.6-221.5c2-57.3,4-114.4,1.5-171.7
						c-1-24.9-4.1-49.5-4.1-74.8c0-65.9,6.6-131.5,2.2-197.7c-2.1-32.4-2.5-34.5-22.6-30.1c-0.2,0-0.4,0.6-0.6,0.8
						c-1,4,4.3,4,2.2,9.2c-11.4-6.8-22.6-12-34.4-13.8c1.8,5.5,6.2,4.9,7.8,13.1c-14-5.2-26.8-11.8-37-24.4
						c-11.8-14.6-24.7-21.5-38.8-25.6c-21.9-6.3-41.9-24.1-64.5-27c-7.3-1-9.9-0.6-9.4,11.6c0.3,8.1-0.2,16.3-0.7,24.6
						c-0.8,12.6-4.1,15.7-11.7,11.6c-3.9-2.1-7.4-7.8-11.9-3.6c-3.6,3.4-7.1,1.8-10.4-0.8c-6.4-4.9-13.3-5.7-20.1-7.9
						c-16.5-5.5-32.7-12.3-48-25.1c-17.8-14.9-36.4-28-56.9-31.4c-8.4-1.5-16.6-4.4-24.8-7.3c-15.4-5.5-22.2-6.8-16.1,24.1
						c3.4,17.5-0.7,25.6-11.5,20.2c-13.7-6.8-27.7-9.9-41.5-13.9c-10.3-3.1-17.9-14.2-27.5-18.8c-36.4-17-73.1-32.7-109.6-49
						c-10.5-4.7-10.1-4.9-12.7,12.9c-2.1,15.4-0.5,30.9-1.8,46.1c-0.6,7.1-0.5,17.2-8.1,14.2c-12.9-4.9-25.9-8.3-38-18.4
						c-7.9-6.6-16.7-10.4-25.5-14.1c-32.3-13.4-65.7-21.4-96.2-44.8c-11.4-8.7-23.4-15-35.5-20.9
						C719.4,1392.3,702.6,1392.8,692.6,1370z M1617,1487.5c-0.2,11.6-4,15.4-7.4,18.6c-9.9,9.2-20.4,17-29.8,27.2
						c-12.9,14.1-25.2,28.5-24.9,58.7c0.3,28.8,1.7,57.6,1.6,86.4c-0.1,54.4-2.9,108.7-3.3,163.1c-0.1,17.6,1.4,35.4-0.3,53.2
						c-2.9,31.9-5.6,63.9-4.5,96.3c0.6,16.3,1.1,32.7,1.5,49c1.7,74.3-1.8,148.4-3.2,222.5c-0.9,49.7,0.5,99.2,1.5,148.9
						c1.3,65.4-5.6,130.7-1.7,196.3c0.5,8.6-1,17.3-1.1,25.9c-0.5,39.5-1.8,78.8-1.2,118.4c0.2,12.1,5.9,21.4,6,31.7
						c0.3,28.3-1.5,56.6-2.5,85.1c-0.2,4.5-2.7,10.2,0.4,13.3c2.9,2.9,5.6-2.4,8-4.7c2.4-2.3,8.8-3.7,4.6-10.8
						c-4-6.8-0.7-7.6,1.4-10.4c2.6-3.2,6-5.7,7.8-9.7c17.1-39.8,41.6-68.1,61.8-103.1c21.4-37.1,49-63.1,70.1-101.4
						c19.1-34.3,43.2-61.3,65-91.6c26.6-36.7,54.6-70.5,77.8-113.3c19-34.9,39.3-67.8,59-101.8c5.3-9.2,8.8-22.3,15.2-28.2
						c9.6-8.9,12.9-24.1,20.9-36.4c-11.2-0.2-17.3,13.3-26.8,15.9c1.1-6.5,4.2-7.3,6.3-9.2c9.6-9.1,20.2-16,28.2-28.5
						c10.9-17.3,25.6-33.3,20.2-62.8c-5.4-29.1-0.5-57.9-0.9-86.6c-0.5-38.5,5.6-77,6.4-116c1-45-1.9-89.3-4-133.8
						c-1.4-31.1-5.7-61.5-5.2-93.2c0.9-49.8,4.2-100.2-2.1-149.8c-0.9-7.3,0-14.4,1.1-21.5c2.5-15.4,5-30.9,7.8-46.1
						c2.4-13.1,3.3-26,1.7-39.8c-4-32.8-1.7-66.2-0.7-99.2c1-32,5.5-63.7,2.3-96.4c-5.9-60.8-11.4-122-7.4-184
						c0.4-7.1,0.4-14.6-0.3-21.7c-7.3-69.4-11.9-139.3-12.4-209.9c-0.1-9.4-1.6-12.5-7.5-7.3c-21.2,18.9-43.2,35.3-62.7,59.4
						c-18.2,22.3-40.1,36.6-57.7,61.3c-8.6,12.1-8.3,23.6,1.7,30.9c1.4,1,2.9,1.8,3.2,4.4c0.4,2.6-0.5,5.5-2,5.7
						c-11.2,1.5-7.7,14.2-6.5,23.1c1.7,11.6-1,18.4-6.5,24.3c-9.5,10-18.4,22-28.7,29.8c-25.8,19.6-45.3,52.6-66.8,80.7
						c-12.3,16-22.3,36.2-37.1,47.4c-1.4,1.1-3.5,2.3-2.3,7.8c5-6,7.8-2.6,8.8,5.8c1.1,9.4,1.8,19.1,3,28.5c1,8.3,5.7,16.7-1.2,24.3
						c-0.9,1,0.2,6.3,0.4,9.7c0.2,3.4,1.3,8.4,0.4,9.7c-6.3,8.7-9.8,23.5-15.7,29.4c-13.4,13.4-26.9,26.9-40.2,40.3
						c-20,20.1-34.3,49.8-51.4,74.6c-10,14.6-23.2,23.1-31.2,41.1c-1.2,2.8-5,3.7-3.3,8.7c1.3,3.9,4.2,4,6.5,3.6
						c9.6-1.8,19.3-3.7,27.8-11.8C1595.3,1509.3,1606.5,1502,1617,1487.5z M200.7,869.7c-3.1,9.7-9.4,14.2-11,23.9
						c-1.5,8.9-5.5,13.1-10.5,16.3c-16.5,11-32.3,23.9-43.3,47.9c-1.4,2.9-3.4,5.7-5.6,7.1c-19.9,12.9-32,42.1-49.5,60.2
						c-2.6,2.8-4.9,7.4-6.5,12c-7.1,19.7-19,33.3-26.5,52.9c-4.7,12.1-13.2,20.7-20.4,30.3c-2.8,3.7-8.2,4.7-7,12.6
						c1,7.1,1.4,15.5,8.3,16.8c5,1,9.7,5,14.5,8.1c22.2,14.1,44.9,25.9,68,34.6c10.3,4,20,10.4,29.9,16.3
						c27.7,16.7,52,44.7,80.7,57.9c12.1,5.7,14,7,15.5-18.3c0.6-9.5-3.5-13.4-8.3-16.5c-2-1.3-3.9-3.7-3.1-7.8
						c0.7-4.5,2.9-3.9,5.2-2.9c8.1,4.2,9.3-3.7,7.9-12.9c-0.9-6.3,0-10.4,2.6-14.1c17.1-25.6,31.3-55.2,50.2-78.8
						c30.6-38.2,58.2-82.4,87.2-123.6c4.9-7,3.2-10.2-1.7-12.6c-7.8-3.9-15.5-8.3-23.4-11.5c-12.8-5.2-24.5-14.4-37-21.4
						c9.6,10.2,21.2,15.9,27.6,34.1c-23.4-1.1-39-23.9-55-46c2.9-3.9,6,1.3,9.2-1.5c-1.3-1.1-2.3-2.1-3.3-2.9
						c-14.7-12.9-31-20.4-43.9-39.3c-6.3-9.2-14.8-17.5-24.8-9.1c-2.2,1.9-4.5-0.2-4.4-4.5c0.3-12.6-6.5-12.8-11-15.4
						c-3.1-1.9-5.8-0.8-8-7.8c-2.7-8.9-13.5-8.6-17-0.6c-12.3,27.3-29.1,46.9-45.1,68c-17.7,23.3-34.6,48.1-50,75.2
						c-0.1,0.2,0.4,1.3,1.6,5.2c10.7-29.4,31.5-37.1,44.7-60.4c5.7-10,12.3-18.8,19.9-24.8c14-11.2,29-19.6,37.3-43
						C195.2,871.3,196.9,868.4,200.7,869.7z M435.3,1321.8c3.8-11.2,7.1-19.9,15-17.8c3.6,1.1,6-0.6,7.8-4.9
						c5.4-12.1,12.3-22.7,15.6-36.9c3-13.1,9.1-22.5,15.8-31.1c4.8-6,9.6-11.8,14-18.3c23.6-34.9,48-68.6,70.9-105.2
						c7.9-12.6,13.9-27.8,22.7-39c5-6.3,4.9-10-1-15.5c-25.1-24.3-52.9-36.2-80.9-48.5c-15.3-6.8-32.3-9.5-43.4-32.4
						c-1.9-4-6.9-7.6-9.6-6.5c-7.6,3.2-11.5-3.6-17.2-9.1c-20.7-19.7-22.7-18.1-37.7,11.8c-1.3,2.6-3.8,5.8-2.3,8.6
						c3.8,7.6,1.3,12.1-2,17.2c-3.2,5-6.3,10.4-9.5,15.4c-1.1,1.6-2,0.5-2.9-1.1c-3.5-6.1-7.2-2.8-10.6,0.3
						c-12.3,11-21.9,26.9-31.8,42.4c-19.4,30.3-39,59.9-61.2,84.9c-6.2,7-11.8,15-16.6,26.7c12.1-4.4,19.6-19.3,31-21.8
						c-19,28-46.4,41.6-55.5,87.7c16.9-2.6,21.1-29.4,32.9-40.6c11.8-11,20.4-29.6,31.4-43.2c10.9-13.4,17.2-35.3,30.7-45.5
						c1.4,6.8-0.8,10.2-2.8,12.3c-18.3,19.4-28.5,51.1-44,74.8c-0.6,1-1.5,2.1-1.6,3.4c-0.7,12.6-7.4,16.5-12.8,22.5
						c-5.5,6-10.6,12.6-16,18.9c-4.1,4.7-4,7.9,0.5,12.8c7.9,8.7,17,12.1,25.8,17c25.9,14.1,50.2,34.8,76.2,48.5
						c23.4,12.3,47.2,23.1,69.5,40.3c0.8,0.6,1.7,1,2.5,1.5c5.2,2.4,7.5-0.5,7-9.1c-0.2-3.9-0.8-7.6-0.8-11.5
						C444.6,1321.5,444.3,1313.9,435.3,1321.8z M836.6,1142.8c-0.7-0.8-1.4-1.8-2-2.6c-1.2,17.5-10.9,21.4-16.9,31.4
						c-11.7,19.4-20.2,42.7-33.3,60.8c-19.4,26.7-36.8,57.1-57.6,81.5c-1.6,1.9-2.8,4.9-4,7.8c-4.9,12.6-9.6,25.2-17,34.9
						c-5.5,7.3-4.1,14.6,2,18.9c5,3.4,10.2,5.5,15.4,8.3c12.7,6.5,26.3,8.4,38.1,18.1c30.9,25.6,65.3,33.8,98.1,49
						c19.2,8.9,39.2,12.8,56.8,29.9c9.4,9.2,14.4,2.8,14-14.7c-0.3-12,0-24.1-0.1-36.1c-0.1-8.3,1.6-16.3,5.2-20.9
						c12.5-16,22.5-36.2,35.9-50.6c8.9-9.7,17.6-20.2,25.9-31.2c19.5-25.9,34.8-57.8,50.3-89.3c2.6-5.3,5.7-9.9,8.4-15.2
						c4.1-7.9,2.9-12.1-3.5-14.7c-25.4-10-50.2-23.9-75-37.4c-36-19.4-71.5-40.9-107.9-58.2c-12.3-5.8-23.7,10.2-21.9,30.3
						c1,11.2-6.3,8.4-8.2,14.4c-0.7,2.1-2.7,3.6-3.9,1.3c-2.5-5,1.7-8.6,1.6-13.1C836.9,1144.6,836.7,1143.8,836.6,1142.8z
						 M1664.3,1360.3c-12.7-2.9-21.1-12.8-30.7-18.6c-18.3-11-36.6-22.7-55.8-29.3c-16.3-5.7-32.8-12.3-49.5-13.8
						c-16.4-1.5-32-4.9-47-15.4c-6.8-4.9-8.9-2.1-8.2,9.4c1.2,19.7-0.9,22.5-13.1,15.2c-6.6-3.9-13.3-3.6-15.8,6
						c-3.5,13.1-9.6,17.2-17,20.2c-0.5,0.2-1,1.1-1.4,1.6c-26.6,36.7-54.5,71-76.1,116.5c-8.9,18.8-8.5,23.5,5.5,31.2
						c2.5,1.5,5.3,2.1,8,2.1c8.3,0,16.2,2.6,23.7,8.1c21.2,15.7,44.6,20.2,66.8,30.9c21.4,10.2,43.7,17.8,66.1,21
						c4.4,0.6,11,7.4,12.4-7.8c0.3-4.4,3.3-1.9,5.3-0.6c2.2,1.5,3.6,7.1,7.2,3.7c-0.9-7.3-4.6-8.3-8-9.5c-6.9-2.8-13.8-1.6-20.8-1.8
						c-14-0.5-27.7-3.9-41-10.8c-2.1-1.1-5.6-1.9-4.6-7c1-4.9,4.1-2.1,6.4-1.5c1.2,0.3,2.3,1.1,3.4,1.6c14,6.5,28.3,9.5,42.9,8.7
						c6.1-0.3,12.9-10.2,18.7,2.8c1.2,2.8,3.1-2.6,4.6-5c5.4-9.1,10.5-18.3,16.8-26c12.7-15.9,25.2-32.7,36.5-51
						c7.2-11.8,14.8-22.2,22.7-32.7C1635,1391.8,1649.7,1379.4,1664.3,1360.3z M1254.8,1245.7c-2-6.1-6.2-6.5-9.8-8.1
						c-29.4-12.3-57.9-29.9-87.6-41.3c-7.5-2.9-14.6-7.1-22.7-7.8c-6.5-0.5-13.3,3.1-19.6-1.9c-5.2-4.2-6.8-1-7.6,7.3
						c-1,9.5-8,12.9-10.8,4.9c-3.9-11-6.1-2.4-7.6,0.6c-3.5,7.3-7,15-11.8,19.9c-21.7,21.8-37,54.7-55.2,82.2
						c-12.7,19.3-24.7,39-39.4,54.7c-11.6,12.1-22,26.9-31.8,42.7c-3.5,5.8-3.5,9.4,1.8,11.8c8.4,3.7,16.6,8.7,25.2,11.5
						c16.3,5.2,31.3,18.4,47.9,20.4c30.2,3.7,58,22.2,86.5,35.6c14.3,6.8,14.2,9.2,15.1-15.5c0.1-3.9,0-7.8-0.1-11.5
						c-0.2-6.6,1.1-15.5,3.9-16.7c6.7-3.1,9.2-13.1,14.5-18c18.8-17.2,31.3-45.1,45.4-69.6c19.1-33,37.6-66.2,60.4-92.9
						C1253,1252.2,1254.6,1249.9,1254.8,1245.7z M1296.9,1211.9c14,5.8,27.2,14.7,41,21.2c2.1,1,6.6-0.2,5.1,6.6
						c-1,4.7-4.2,3.7-7.1,2.6c-12.5-5.2-24.7-11.8-37.2-17.3c-7.8-3.4-12.5-0.5-17.8,5.7c-1.7,1.9-3.9,3.7-3.3,7.8
						c0.5,3.9,2.7,2.8,4.5,3.1c4.2,0.8,7.4,4.9,6.4,11.3c-1.4,8.9-5.9,4.2-8.8,2.1c-8.6-5.8-15.8-2.8-22.2,7.8
						c-2,3.4-4.5,6.5-6.9,9.2c-20.5,23.3-37,53.1-54.5,81.5c-13.5,22-23.2,50.3-41.8,64.9c-9.8,7.8-8.7,16.8,1.3,23.9
						c3.5,2.6,7.3,4.7,11,6.5c21.1,10,43.4,13.9,63.8,27.3c14.5,9.7,29.3,13.4,44.7,14.4c4.4,0.3,8.5,2.1,12,6
						c9.5,11,19.8,17.2,31.6,18.9c11.5,1.8,11.7,3.4,10.5-15c-1-16.2-2.6-32.2,7.1-43.5c5.7-6.6,9.9-15.2,14.4-23.8
						c6.6-12.5,13.3-24.9,20.7-36.1c12.5-18.9,25.6-36.6,38.1-55.3c6.1-9.2,10.6-20.5,17.7-28.3c13.9-15.2,13.9-16.2-1-28.8
						c-19.2-16.2-37.6-34.5-58.3-45.6c-16.8-9.2-34.7-12.5-51.3-22.7C1310.3,1213.1,1303.9,1209.3,1296.9,1211.9z M1631.5,595.2
						c2.3,7,6.8,8.1,10.1,11.8c2.4,2.6,8.6,0.3,7,7.3c-1.4,6.3-6.4,1.8-9.6-0.2c-1.6-1-3-3.1-4.7-4.4c-11-9.7-21.8-20.7-34.9-23
						c-10.4-1.8-20.9-4.4-31.1-8.4c-8.4-3.2-15.8-1.6-22.8,9.4c-7.9,12.3-17,23.3-26.5,32.5c-19.5,18.9-36.9,41.7-53.9,65.4
						c-10.1,14.1-19.2,30.3-28,46.4c-3,5.7-8.8,10.5-8.2,18c0.6,8.7,8.1,6.1,11.8,11c2.5,3.4,5.6,5.7,8.4,8.4c1.2,1.1,3,3.7,3.5,0
						c2.3-15,5.4-4.2,8-0.6c2.8,3.9,6.1,6,9.4,8.6c12.6,9.4,25.8,15.7,38.6,24.1c21.4,14.1,42.3,30.1,64.9,40.1
						c17.6,7.8,27,4,38.8-20.4c1.3-2.8,2.7-5.5,4.9-6c9.9-1.6,15-13.4,20.2-24.4c4.6-9.5,9-19.3,14.6-27.5
						c22.1-33,48.1-59.1,65.6-100.2c3.3-7.9,4.6-10.2-1.7-15.2c-15.9-12.6-33.1-19.7-48.9-33.8
						C1656.4,604.9,1643.6,601.1,1631.5,595.2z M841,484.2c-7-12.3-17.8-13.8-26.4-22.3c-16.7-17.2-34.2-32.4-52.6-44.8
						c-18.3-12.5-38.2-18.8-55.6-34.3c-15-13.3-25.5-10.2-40,7.1c-33,39.5-60.1,89.8-95.3,125.7c2.7,3.1,6-0.2,6.6,3.7
						c0.8,5.3-2.7,5.3-4.8,6.6c-6,4.2-12.8,5.8-17.1,14.9c-1.2,2.4-4.8,1.6-4.4,6c0.4,4.4,3.3,5.3,5.6,6.5
						c9.6,5.5,19.9,8.7,28.9,16.7c23.7,20.9,47.2,42.2,70.9,63.1c4.7,4,6.7,9.7,7.1,18.4c0.7,16.8,2.3,33.3,3.8,53.1
						c6.6-17.2,14.8-27.2,22.8-37.2c26.5-33.3,55.5-60.7,83.2-91.3c5.8-6.5,9.6-16.2,15.7-21.7C809.2,536.3,825.3,510.9,841,484.2z
						 M1936,862.4c-15.9-10.2-31.4-18.3-45.8-31.6c-10-9.4-19.3-21.8-30.8-26.4c-7.4-2.9-14.5-6.8-21.4-11.6
						c-16.3-11.2-31.7-25.7-48.6-34.8c-27.2-14.7-43.1-6.8-60,29.3c-4.2,8.9-7.7,18.6-13.2,25.6c-12.9,16.3-27.4,28.8-38.7,49
						c-14.6,26-28.9,52.6-45.3,76.2c-6.2,8.9-4,13.4,3.9,18.1c23.6,14.6,49.2,6.8,73.5,18.6c24.8,12,48.9,27.2,73.7,38.8
						c11.4,5.3,19.6,7,28.7-6.8c30.7-46.8,69.5-75.7,102.7-117.3C1922,880.7,1929.5,872.1,1936,862.4z M946.7,298.1
						c5.1-2.8,9.7-2.3,12.9,3.1c6.4,10.7,15,13.8,22.8,19.6c8.7,6.6,17.6,12.3,26.4,18.8c4.5,3.2,6.9-1.3,9.1-5.8
						c2-4-0.1-6.1-2.2-7.3c-15.9-9.2-29.4-25.9-45.4-35.3c-28.8-17-59-28.2-85.9-53.1c-2.7-2.6-6-5.7-9.3-2.3
						c-3.8,3.7-6.8,1.6-10-1.6c-4.8-4.9-9.5-8.7-14.7-0.6c-1.2,1.9-3.4,2.9-4.9,0c-1.5-2.9-0.1-5.3,1.3-7.3c1.8-2.8,5.4-4.7,2.4-10
						c-1.9-3.6-4.3-8.1-7.6-6.3c-7.4,3.9-14.9,8.1-17.7,21.7c-0.9,4.5-2,8.9-4.6,12.1c-17.2,21-30.4,49.2-49.1,68
						c-13.7,13.8-21.8,38.8-37.9,48.1c-5.1,2.9-3.4,6.1,0.2,10.5c9.4,11.5,20.2,17.5,31.1,24.3c15.6,9.5,30.1,23.8,45.3,35.1
						c16.4,12.3,32.2,26.2,48.1,40c4.9,4.2,6.7,9.9,3.4,17.6c-6.7,15.9-4.5,33.2-3.3,50.3c0.5,7.3,2.1,9.7,6.3,4.7
						c7.9-9.7,16.9-17.6,23.6-29c19.3-33,41.8-59.4,64.6-85.4c17.7-20.1,34.1-42.9,49.7-67c5.1-7.8,4.6-12.3-2-16.3
						c-6.5-4-12.7-9.1-19-13.6C968.7,322,956.6,313.9,946.7,298.1z M521.2,806.8c-0.2-4.5-2.2-5.5-4.3-6.8
						c-3.9-2.8-7.8-5.2-11.6-8.3c-33.8-28.8-68.1-55.3-104.3-75.7c-2-1.1-4.3-2.8-6.1-1c-5.3,5.3-7.4,0-11.2-5
						c-4.6-6-9.3-17-16.1-12.9c-6.1,3.6-11.7,10.2-15.9,19.3c-5.7,12-12.6,22-19.9,31.4c-12.6,16.3-26.4,30.4-37.5,49.7
						c-3.1,5.5-7.7,9.5-12,12.6c-15.5,11.5-26.1,32.5-38,50.6c-2.6,4-2.5,7.9,0.8,10.2c10.1,6.8,17.4,21,27.2,28.3
						c34.4,25.6,68.5,52.4,105.6,67.1c17.9,7.1,21.7,5.7,32.1-19.7c0.2-0.3,0.3-0.8,0.4-1.3c6.2-15,10.1-17.5,20.2-10.4
						c6.3,4.4,10.6,3.6,14.4-6.5c6.9-18.3,17-33.2,26.7-46.6c14.3-19.7,27.2-42.2,42.5-60.2C517.7,817.9,519.8,812.6,521.2,806.8z
						 M1533.2,531.4c-12,7.8-23.2,16.8-33.2,29.3c-2.2,2.8-4.8,5.8-7.1,1.3c-2.7-5.5,1-7.3,2.9-9.7c9.7-12.6,21.1-20.4,32-29.3
						c7.6-6.1,7.7-12.8,0-16.7c-12.4-6.1-23.1-18.8-36.2-22.2c-20.8-5.3-38.8-23.3-58.7-33c-21.8-10.7-42.4-27.2-64.4-37.7
						c-5.3-2.6-9.3-1.1-13.3,4.7c-7.3,10.8-14.7,21.5-22,32.2c-21.7,32-43.2,64.1-65,95.8c-5.9,8.6-13.6,14.2-17.7,25.9
						c-0.9,2.4-2.8,4.7-0.4,6.8c1.4,1.3,3.9,3.4,5-1.5c2.7-12,6-5.7,6.8,0.6c1.4,10.7,4.9,8.7,9.2,6.5c1.9-1,3.6-3.9,6-1.9
						c1.6,3.7-3.5,6-0.9,9.9c2.5,3.9,15.5,3.4,18.7,0s4.2-11.6,10.3-12.3c-4.4,12.8-6.1,25.4,3,30.1c7.6,3.9,13.9,10.8,21,16
						c7.4,5.5,14.5,10.4,23.3,7.3c2.5-1,11.3-7.6,11.5,8.1c0,1,3.1,2.8,4.8,2.6c2.7-0.3,4.4,1.1,6.1,4.4
						c5.1,9.2,11.4,14.1,19.3,11.3c2.1-0.8,4.8-3.2,3.8,4.7c-0.7,5.3,10.5,17.2,12.2,13.9c4-7.8,10-8.6,14.9-12.6
						c20.4-16.8,35.8-44,55-63.1c10.8-10.7,23.6-17.8,31.5-35.3C1517.7,553.7,1523.2,539.3,1533.2,531.4z M1105.6,259.9
						c0.4,0.8,0.7,1.6,1.1,2.4c6.5-8.4,12.9-17,19.6-24.9c9.7-11.5,18.5-24.4,26.2-39.6c2-4.2,4.4-7.6-0.4-10.8
						c-13.3-9.1-25.5-22.2-39.9-26.9c-17.7-5.8-33.2-19.6-48.1-35.1c-6.8-7.1-12.9-16.3-21-19.3c-18.7-6.5-35.8-19.9-54.1-28
						c-9.1-4-18.1-9.5-23.8,9.1c-0.7,2.3-3,3.1-4.5,4.9c-5.3,6.5-11.3,11.8-15.5,19.7c-13.8,25.6-28.6,49.5-43.7,73.1
						c-5.4,8.4-10.3,17.5-15.2,26.7c-2,3.7-3.9,8.4,0.2,12c16.2,14.4,31.5,30.9,50.1,39c27.6,12,55.1,25.1,79.3,51.3
						c3.5,3.9,9.5,8.7,12.5,6.6c9.5-7.1,5.5,9.1,8.8,11.5c-4.1,9.9,3.5,16.5,2.7,26.4c9.1-13.1,19.5-25.1,25-41.3
						c11.6-33.7,34.5-49.7,46.5-81.9c0.1-0.3,0.4-0.6,0.7-1c1.5-1.6,3.1-3.7,4.9-1.3c1.8,2.8,0.1,5-1,7.3
						C1112.3,246.5,1109,253.3,1105.6,259.9z M1507.6,1158.9c-0.8-1.3-1.6-2.6-2.4-3.9c-4,5.2-8.2,10-11.7,15.9
						c-3.8,6.3-12.2,9.9-10.2,19.7c1.6,8.1,9.7,8.4,15.1,10.4c23.8,8.6,47.7,16.8,71.7,25.1c15.3,5.3,30.3,13.8,45.9,15.4
						c19.4,2.1,38.2,7.3,54.8,13.9c6.9-19.7,20.9-24.1,29.6-38c9.1-14.4,18.1-29.1,28.9-41.3c10.6-12.1,19.4-29,30.4-40.8
						c10.8-11.5,22-22,34.3-34.1c-17.5-11.6-34.1-18.8-50.5-26.2c-26.2-12-52.9-19.6-79.5-28.2c-13-4.2-24.1-22.2-40.2-10
						c-8.8,6.6-18.3,13.6-26.4,21.5c-5.4,5.2-9.4,17.8-15.6,25.7c-5,6.5-9.1,15-15,20.1c-22.8,19.6-43.4,43.7-60.7,74.3
						c-0.4,0.6-0.8,1.5-1.3,1.9c-2.5,3.4-5.3,8.1-8.6,3.2c-3.6-5.5-0.2-9.7,2.1-13.1C1501.2,1166.1,1504.5,1162.6,1507.6,1158.9z
						 M1337.6,349.2c-14.3-10.7-28.6-20.1-43.8-25.9c-20.9-7.9-40.7-20.2-60.3-34.1c-19.3-13.6-38.6-27.2-58.8-36.9
						c-2.4-1.1-4.9-1.1-6.9,1.3c-17.2,20.9-36.7,37.2-50.8,64.4c-8.3,16-17.5,29.9-28.7,41.3c-9.1,9.2-17.5,20.4-24.7,33.5
						c-1.1,2.1-3.3,3.7-2.7,6.8c0.7,3.9,3.3,3.9,5.4,3.6c6.9-1.3,13.5-1,20.6,0.8c11.6,3.1,20.6,15,31.8,19.4
						c12.8,4.9,25.4,12.1,37.1,22.5c9,7.9,20.2,9.1,27.7,20.7c7.5,11.6,20.6-3.7,26.1,15c0.2,0.6,1.8,0.8,2.4,0.3
						c5.2-4.2,9,0.5,13.6,3.4c3.3,1.9,7.6,9.7,11.4,2.4c8.4-16,19.9-26.4,28.9-41.4c11.4-18.9,21.9-39.2,36.5-53.2
						c8.4-8.1,18.8-14.4,24.3-28.8C1329.3,357.1,1332.2,352.3,1337.6,349.2z M545.8,831.7c10.9-21,19.7-41.6,30.7-58.2
						c22.2-33.5,39.7-73.1,60-109.2c8-14.2,7.4-14.6-3.1-22.5c-11.5-8.6-22.7-17.8-33.8-27.7c-12.9-11.5-25.4-23.8-38-35.9
						c-9.7-9.4-19.7-18.4-29.1-28.8c-12.6-13.9-21.1-13.8-25.8,3.6c-3.1,11.6-8.7,17.3-15,23.5c-12.1,11.6-24,23.5-33.7,40.8
						c-14.2,25.4-29.3,49.7-44.3,73.9c-3.9,6.3-2.8,10.7,1.1,13.3c16.5,10.5,31.5,26,47.7,36.9c23.4,15.5,46.5,31.7,69.8,47.6
						C541.1,794.6,545.4,813.7,545.8,831.7z M1684.6,1314.2c-1.1-17.3-1.8-29.8-2.6-42.2c-0.2-3.6-0.7-8.3-3.1-7.4
						c-10.1,4-18.8-5.7-28.2-7.8c-27.7-6-55.8-11-82.6-22.5c-28.9-12.5-58.8-17.2-87.1-32.8c-6.2-3.4-9.7,1.3-7.8,10
						c2.2,10-4.7,26.9,7.9,29.8c-1,14.7,7,13.3,11.9,15.7c9.5,4.7,19.2,8.9,28.1,15.7c4.4,3.2,14-2.8,11.6,14.7
						c-0.1,0.5,1.9,1.9,3,2.6c4,2.4,8,3.4,12.3,4c9.5,1.3,19.5,1.8,28.5,6.3c20.4,10.2,41.1,18.9,60.8,32.5
						c8.6,5.8,17.3,11.2,26.1,16.3c2.4,1.5,5.4,3.7,7.7-0.2C1677.6,1338,1687,1328.7,1684.6,1314.2z M1737,661
						c4.9,13.6,4.4,17-5.7,23c-5.2,3.1-9.1,8.1-11.9,14.7c-8.2,20.2-20.1,34.8-31.5,49c-19.9,24.8-41.8,45.3-58.4,76.7
						c-6.7,12.6-17.5,21.4-10.8,42.4c0.8,2.6,0.2,6.6,0,10c-0.9,12.9-2,25.7-2.8,38.7c-0.3,4-1.9,9.5,1.4,11.5
						c2.6,1.5,3.5-4.2,5.2-6.8c20.2-31.4,37.5-68,63.3-89.6c2.5-2.1,4.8-6.1,6.4-10c7.2-17.3,17-29.6,27.6-41.1
						c17.1-18.6,28.4-42.6,25.8-78c-0.4-5.7,0-11.6,0.8-17.2C1748.5,671.2,1745.9,663.1,1737,661z M1638.1,972
						c6.9,12.6,1.1,11.2-3.2,11.8c-2.4,0.3-5.8-2.1-6.2,5c-0.4,7.1-1.1,14.2-1.5,21.4c-0.4,5.7,1,8.3,4.9,9.5
						c29.7,9.4,58.7,23.8,88.7,31.9c24.2,6.5,47.7,19.9,71.6,30.3c5.1,2.3,10.1,2.9,15.2,0.8c3.2-1.3,5.1-4.9,4.9-10.7
						c-0.2-5.3-2-8.1-5.2-7.8c-9.1,0.8-15.3-8.1-21.3-16.7c-9.5-13.9-20.3-22.3-32.9-27.8c-22.1-9.5-45.3-12.9-66.1-28.8
						C1671.7,979.3,1655.7,977,1638.1,972z M1160.8,1094.9c7.1-10.2,4.9-18.6-0.1-27c-0.9-1.5,0.2-5.5-0.1-8.3
						c-0.3-3.2-1.9-4.9-3.9-5c-1.8-0.3-2.8,1.8-2.9,4.4c-0.5,13.3,2.4,25.4,4.8,37.9c1.4,7.3,5.2,7.1,8.5,8.6c1.9,1,3.9,3.2,2.5,6
						c-4.1,8.7,1.3,12.3,3.4,17.8c0.6-10.2-1.4-20.4,1.4-32.2c5.2,11.6,3.6,23.5,4.9,34.3c0.2,1.8,10,14.2,10.5,13.3
						c3.8-7.6,9-7.8,14.5-9.5c3.8-1.3,6.3-9.1,5.5-16.7c-0.3-2.4-2.6-5.5,0-6.6c8.1-3.4,10.7-15.5,16.3-25.1c2,12-1.2,21.8-2,31.9
						c-1.1,14.9,3.4,27.5,11.4,30.6c2.1,0.8,4.4,1.3,6-1.5c1.5-2.6-0.2-5.2-0.6-7.9c-1-6.6-6.6-12-5.8-16.5
						c3-19.6,0.2-37.7-2.6-56.1c-0.7-4.4-1-8.7,1.8-11.6c2.4-2.4,2-6.3,2.8-9.9c4.5-18.9-10-22.8-11-37.7
						c1.5,15.2-5.3,26.2-6.7,39.5c-0.5,4.4,0.4,12.9-4,12.6c-3.4-0.3-6.5-5.2-8.4-11.6c-3.1-10.7-5.4-21.2-6.6-33
						c-1.6-16.5-9.2-30.3-9.2-48.2c0-7.6,1.6-15.9-1.5-23.3c-3.1,24.1-0.5,48.5-2.7,73c-2.1,22.8,6,44.7,9.8,66.7
						c0.5,2.8,1.9,5.8,0,7.8c-2.2,2.4-3.9,0-4.9-3.6c-1.6-5.7-3.4-11-5.1-16.3c-4,2.9-2.4,13.9-6.5,11.2c-4-2.6-0.7-10,0-15.4
						c0.1-1,0.5-1.8,0.7-2.6c4.1-15.2,2.6-25.1-6.1-33.2c-8.7-8.1-12.9-18-11.8-35.1c1-15.9,1.5-31.9-0.9-48.1
						c-1-6.5-2.2-18.1-0.9-21c4.1-9.2,0.2-15.2-2.7-15.5c-4.6-0.5-5.5,7.3-6,14.7c-1.5,22.7,5.8,44,3.1,66.7c-0.4,3.6,0.9,7.6,3,10
						c2.1,2.4,2.7,4.9,1.2,8.4c-2.5,6-0.6,11,1.5,15.9c2.2,5.2,4.3,10.7,4,17.3c-0.4,10.5,1.7,19.7,4.6,29
						C1173.8,1085.6,1171.3,1091.9,1160.8,1094.9z M1541.7,947.9c-2.1,10.2-0.7,20.2,0.3,30.1c0.4,3.7,1.2,9.1-2,9.4
						c-3.5,0.3-3.8-5-3.5-9.5c0.2-4.9,1-9.7,0.5-14.2c-1.4-11.6-1.7-22.5-8.5-32.7c-8.2-12.5-5.9-33.8-7-51.3
						c-0.9-14.4-4.9-22.8-12.6-28.3c-1.6-1.1-3.1-2.6-4.8-3.6c-1.2-0.6-1.5-7.8-2.5-3.2c-1.1,5.8-7.1,6-5.6,8.9
						c5.4,9.9,11.5,23.6,18.3,25.2c5.3,1.3,1.8,5.5,3.2,6.5c-10.4,6-1.8,17.8-3.1,26.7c-1,6.3,0.7,12.3,0.9,18.6
						c0.1,3.4,0,8.1-2.5,8.1c-3.1-0.2-1.9-4.9-1.7-7.9c0.5-6.5,1.8-13.1-0.1-19.3c-3.3-2.1-2,9.1-5,4.5c-5.1-7.8-13.8-2.3-17.7-13.9
						c-1.2-3.6-5.1-2.9-7.4,0.3c-2.4,3.4,0.8,6,0.7,8.6c-0.2,9.2,8.2,12,6.2,22.5c-0.5,2.8-0.4,6.5,1.6,7.4c2.2,1.1,2.7-2.8,3.8-5
						c1.5-3.4,5.1-9.1,5.5-3.2c0.7,10.2,6.6,17.5,5.1,28.5c-1.1,8.3-1.3,16.8-1.5,25.2c-0.6,22.7,4.4,44.2,5.7,66.5
						c0.4,6.6,1.6,13.6-2.1,19.7c-2.5-5.7,1.3-16.2-4.9-15.5c-5.2,0.5-5.4,9.4-5.2,16.2c0.2,4.9-2,12.1,1.7,14.2
						c3,1.6,6-3.4,8.3-7.1c1.2-2.1,2.4-4.4,3.5-6.6c1.6-3.2,2.3-8.7,5.6-8.4c4.1,0.5,3.8,6.5,4.4,11c0.3,2.4,0.6,5.2,2.7,4.2
						c0.9-0.5,2.1-2.3,2.3-3.9c1.5-12,8.2-25.2,14.9-29.1c7.2-4.2,8.6-13.9,2.7-21c-3.5-4.2-3.5-6.6-0.4-10.8
						c8.4-11,14.7-22.8,5-39.6c-0.5-0.8-0.9-3.2-0.5-3.9C1550.9,961,1542.7,956.1,1541.7,947.9z M1028.8,485.5c3.9-2.9,6-6,4-14.2
						c-2.6-10.2-5-20.7-4.7-32.2c0.1-3.7-0.4-9.5,2.1-10.2c8.8-2.1,6.3-12.6,6.8-21c0.3-4.9,0.1-9.7,0.4-14.4c0.1-1.6,1-4,1.8-4.5
						c1.8-1,2.4,1.6,2.9,3.9c0.5,2.4,0,6.1,2,6.3c8.4-14.7,17.7-26.4,27.6-37.4c13.4-15,27.9-26.9,37.8-50.2
						c9.6-22.8,26.5-35.6,38.1-56.3c0.4-0.6,1-0.8,1.6-1.3c13-8.3,15.4-18.3,9.8-39.2c-2-7.6-4.3-7.1-7-1.3
						c-5.3,11.3-12.7,19.3-19.4,28c-30.9,39.8-62.3,79-89.1,126.2c-12,21.2-12.2,20.9-19.5-5.5c-0.2-0.8-0.4-1.8-0.6-2.8
						c-1-4.5-2.5-7.6-6-6.5c-3.5,1.1-5.9,4.7-7.5,9.5c-0.3,1-0.1,2.9,0.4,3.9c0.8,1.6,2.5,2.1,3.1,0.5c2.9-7.4,5-3.6,7,1.1
						c2.6,6.5,1.9,12.5-2.3,15.9c-3.3,2.8-6.5,5.5-3.5,11.5c3.1,6.3,5,0.5,6.7-3.4c1.1-2.4,2.7-4.4,4.6-2.1c1.7,2.3,0.9,5.7-0.3,7.8
						c-1.8,3.1-4.1,5.5-6.1,8.3c6.1,8.1,0.1,16.2-0.6,23.6c-1.8,19.4-0.1,40-7.6,57.9c-2.8,6.8-3.8,15.9-2.8,25.4
						c6-12.1,6-12,6.2-20.7c0.1-4,0.5-8.6,3-9.5c3.3-1.1,1.5,6.3,4,8.1c1.3-6.8,2.5-13.6,3.9-20.5
						C1029.9,474.3,1025.7,480.9,1028.8,485.5z M1346.8,354.6c-6.8,11.5-14.6,19.7-20.1,32c-8.3,18.9-19,34.5-30.7,47.7
						c-18.1,20.5-37.3,39-53.7,63.3c-2.6,3.9-5.3,7.4-5.5,14.2c-0.6,18.8,2.6,37.2,1.4,56c2.9-4.7,4.9-9.4,4.2-15.9
						c-0.4-4.2,0-8.9,3.6-6.3c5.4,3.7,8.6-2.6,12.4-5.8c11.5-9.9,17.7-28.8,27.9-41.6c17.6-22.2,34.4-46.4,50.4-71.7
						c4.7-7.3,12.6-13.4,12.9-24.8C1350,386.9,1352,371.1,1346.8,354.6z M1380.8,968.3c-2.4,16.2-2.2,18,0.7,17
						c7.3-2.1,6.6,5.2,6.3,12c-0.4,10.2-2.1,19.6,0.5,30.3c3.1,12.9,7.1,26.9-1.5,40c-2.4,3.6,1.6,8.9,3,13.4
						c2.8,9.1,7.3,16,7.6,28.6c0.4,15.2-0.2,31.2,3.6,46.8c4,15.9,8.5,32.2,7.3,50.3c-0.2,3.4-1.4,6.8,2.2,7.1
						c7.4,0.5,11-6.6,8.6-17.8c-0.8-3.7-1.6-7.3-0.7-11.2c1.2-5.5,0.7-8.6-3.4-7.8c-2.2,0.5-3.4-1.3-4-4.5c-0.3-1.9-0.1-4,1.3-4.5
						c10.7-4.2,6.1-15,2.7-22.3c-3.5-7.8-3.5-15.5-2.2-23.3c1.6-10.4,4.1-19.7-6.5-18.8c-2.3,0.2-2.7-3.2-2.9-6.1
						c-0.2-3.4-0.3-7,1.2-9.5c1.3-2.3,2.7-1.8,3.8,0.5c2,4.4,4.5,8.3,6.7,1.1c2.5-7.9-1.8-8.3-5-9.7c-1.8-1-4.7-1.8-3.8-6.3
						c1.4-7.3,1.7-7.4-3.6-9.1c-4.9-1.3-5.4-5.2-4.7-12.3c0.5-5.7,4.9-11.6,3.4-13.9c-7-11.2-0.8-25.4-4.2-37.2
						c-1.3-4.9-0.5-5.3,3.5-5.3c0.7,0,1.6-0.8,2.1-1.8c3.3-6.3,1.7-33-2.3-39c-2.6,5.3,0.7,14.7-5.3,18.6
						c-2.6-8.7,0.2-16.5,0.4-24.3c0.3-9.2,4.3-9.9,8.3-9.1c4.9,1,6.7,5.2,4.6,13.3c-0.8,3.2,0,7.6-0.2,11.3
						c-0.9,16.2,10.4,26.5,8,43.5c-0.4,2.6,1.9,4.2,3.1,1.9c2.5-5,5.1,2.6,9-0.6c-9.5-7-10.2-19.9-9.8-31.4c0.6-17-0.6-33.3-2.4-50
						c-1.4-12.1-0.3-25.1-0.3-38.2c4.3,1.8,5,7,6.3,11.2c1.3,4,3.1,7.1,5.6,9.2c2,1.6,3.4,0.5,4.5-2.4c0.7-2.1,1.3-3.4-0.8-5.5
						c-6.8-6.6-10.4-16.2-9.9-29.8c0.2-4.9-1.6-10.2-2.6-15.2c-0.6-3.1-2.3-5-4.2-4.2c-1.8,0.8-1.5,3.9-0.9,6.1
						c1.2,4.7-0.4,5-2.6,6.6c-4.1,2.8-6,7.1-4.6,15.9c1.5,9.4,2.1,20.1-2.6,28.6c-2.8,5.3-2.1,9.4,1.6,12.8c1.9,1.8,4.5,3.4,4,8.4
						c-6.1,4.9-9.7-6.3-15.2-5.3c-2.2,0.5-5-4-6.6,0.5c-1.4,3.7,1.4,5.7,2.6,8.3c1.4,2.9,2.2,6.1,0.4,9.1c-1.9,3.1-3.2-4.2-5.2-1.8
						c-0.7,12,4.2,22.3,4.1,34.3C1385.2,975.9,1385,968.4,1380.8,968.3z M1422.4,739.6c3.4-0.6,4.3-3.4,5.3-5.7
						c15.2-36.1,36.4-62.8,57.6-88.3c19.5-23.3,38.8-47.2,59.4-68.1c11.7-11.8,11.4-27.3,10.6-44.8c-0.2-5.5-1.9-10.8-5.7-6.5
						c-9,10.8-20.9,17.5-25.8,35.1c-4.1,14.6-10.9,25.2-19,31.9c-30.3,24.6-53.7,65.2-83.9,90c-2.3,1.9-5.6,5.2-4.4,9.7
						c1.6,6.1,2.8-2.4,4.5-1.6c1.9,1,0.8,4,1.2,6.1C1424.2,711.2,1422.6,725.1,1422.4,739.6z M1561.4,919.6
						c-2.9-11.2-10.9-15-12.6-27.5c-0.6-4.9-2.4-5.2-4.7-4.2c-2.7,1.1-3.1,3.7-1.5,7.6c0.8,1.9,1.7,4.4,1.7,6.3
						c-1.2,32.2,8.8,60.2,13,90.4c1.3,9.4,3.6,18.1,1.1,28c-1.6,6.6,0,12,4,16c3.2-5.3,4.6-12.1,4.6-18.6c0-12.1,2.8-21.8,6.3-32.4
						c2.2-7,8.2-2.4,7.9-8.6c-0.5-13.4,2.1-28.2-2.3-40.1c-3-8.3-5.6-16-5.1-25.2c0.9-15.5-6.7-26.4-8.4-40.3
						c-0.2-1.6-2.1-3.7-3.3-3.9c-1.9-0.2-1.9,2.9-2,5.3c-0.3,11.8-2.5,23.9,2.5,34.9C1563.8,910.2,1564.8,914.1,1561.4,919.6z
						 M1164,880.2c2.1-0.6,2.4-4.2,2.7-6.6c3.2-20.5,15.6-23.8,25-28.8c4.3-2.3,9.3,0.2,10.3-9.2c0.6-5.5-0.9-11.5-1.4-17.2
						c-3.1,1.1-6.2-4.7-8-2.9c-3,3.1-0.5,8.6,0.2,13.1c0.5,3.1,0.3,6.5-1.7,7.1c-3.6,1-2.6-3.9-2.6-6.8c0-11.5-0.8-22.3-8-29.1
						c-2,5.2-1.5,9.7,0,13.1c3,7,1.8,14.9,2.5,22.3c0.9,9.1-4.3,11.6-8.4,14.6c-1.5,1.1-3.8,3.6-4.8,0.2c-1.8-5.7-2.7-11.8,0.1-17.6
						c1.5-3.1,2.8-6.5,2.6-10.5c-1.2-25.7-4-51-11.5-75.9c-1.9,7.9-2.6,14.4-2.3,21.2c0.2,4.5-1.3,6.1-4,5.2c-3.1-1.3-7-1.3-7-8.7
						c0-2.6,0.9-4.7,2.9-3.4c1.5,1.1,3.6,3.9,4-1.1c0.3-4.4-2.4-4.9-4.6-5c-3.1-0.2-4.8,2.9-6,7.3c-1.5,5.2-0.3,8.6,2.4,10.7
						c3.3,2.6,6.1,4.7,7,11.6c2.5,19.3-0.1,38.7,0.7,57.9c0.1,2.6-0.8,2.8-1.9,3.7c-5,4.9-4.8,12,0.1,16.5
						c-2,11.3-13.5,0.8-14.5,15.2c2.4,4,11.3-8.9,7.6,8.1c-0.7,3.4-3.5,7.9-0.4,9.5c3.5,1.8,4-4.9,4-8.7c0-9.1,2.5-14.2,7.9-16.8
						C1164.1,865.8,1159.6,879.8,1164,880.2z M1090.1,596.3c0.9,5.8,2.9,11.8,2.4,17.3c-0.9,11.5,1,20.5,5,29.8
						c3.5,8.1,0.6,17.6,1.5,26.7c0.8,8.4-5.3,17.2-4,23.6c4.3,20.9-2.8,43.2,4.2,63.4c0.9,2.8-0.9,8.4,1.6,10.4
						c3.3,2.8,4.4-3.6,6.5-5.8c3.2-3.2,3.1-8.4,2.8-14.1c-0.4-6.6-3.9-14.1,1.5-19.7c1.2-1.3,0.6-4.2-0.3-5
						c-7.4-5.3-4-11.6-1.1-18.4c0.9-2.1,1.1-6.3,0.4-8.3c-6.5-16.3-7.2-34.8-7-53.1C1103.7,624.3,1099.9,608.6,1090.1,596.3z
						 M1230.3,1210.1c-0.1-3.2-3-6.8-1.5-12.9c1.2-5.2-0.9-10.8-5.4-12.6c-3.4-1.5-6.9-7-9.9-6.3c-7.1,1.5-10.6-3.6-12.8-14.1
						c-2.4,6.5,2.2,17-4.5,17.3c-5.3,0.2-8.8-5.7-8-15.5c0.2-2.6-1.6-6.1-2.1-5.7c-6.3,7-12.5-8.1-18.2,1.1c-2-5.2-1-16.5-3.8-13.3
						c-7.3,8.7-11.3-2.1-17-4.5c0.2,12.8,5,15.9,11,17.6c5.3,1.5,8,11.5,14.4,9.7c-4.5,3.6-9.2-0.2-15,6.6
						C1185.2,1177.3,1204.9,1206.4,1230.3,1210.1z M1455.2,860.5c-1,1.6-2.2,5-3.5,5.2c-8.2,0.6-4.4,7.8-3.3,13.8
						c0.6,3.9,2.9,8.1-0.4,11.6c-1.5,1.6-5.3,1.3-2.5,6.3c1.6,3.1,4.3,3.2,6.5-0.2c3.3-4.9,7.3-8.7,8.3-18
						c2.7,9.5,7.2,17.2-1.4,22.8c-4,2.6-1.6,9.2-1,14.2c0.4,3.4,2.8,8.4-0.3,10.2c-10.5,6-3.6,15.5-1.4,22.2
						c1.5,4.7,4.3,9.1,6.6,13.4c2.6,5.2,6,12.6,10.2,9.2c5-4,2.8-13.9,0.9-19.3c-5.4-15,2.8-35.6-8.1-47.7
						C1470,885.4,1463.4,872.8,1455.2,860.5z M1471.4,1034.4c-0.3,25.1,3.2,45.1,4.4,65.5c0.1,2.1,0.8,3.9,2.2,3.6
						c0.7-0.2,1.8-1.8,1.8-2.6c-0.3-10.7,3.3-20.7,1.7-31.4c-3.6-23.3,0.9-46.8-1-70.2c-0.8-10.7,3.3-21.7-9-16.3
						c-7.7,3.2-9.8,5-5.1,16C1471.9,1011.5,1470,1025.7,1471.4,1034.4z M1550.7,1648.6c-6.2,63.9-11.2,128-4,192.7
						C1550.1,1777.1,1552.7,1713,1550.7,1648.6z M1060.3,749.5c2.8,75.2-3,151.1,6.7,225.7C1065.5,900,1068,824.4,1060.3,749.5z
						 M1124.2,512.3c-0.4,6-1.4,10.4-0.9,14.2c1.8,14.9-6,29.1-1.1,44.2c-6.4,5.7-2.8,14.9-3,22.7c-0.3,21.2,6.9,40.9,5.4,62.6
						c-0.2,2.4,0.8,5,2.5,5c1.8-0.2,2.1-2.9,2.2-5.5c0.4-8.3,0.1-16.3-1.1-24.3c-2.1-13.4-4.4-26.7-1.3-40.8
						c2.5-11.8,6.2-23.8,2.3-37.1c-0.5-1.9,0.8-5.3,1.5-7.9C1134.2,532.4,1132.5,522,1124.2,512.3z M1328.6,1170.7
						c1.3,5.2,3.4,12.3,7.8,3.1c0.9-1.9,2.7,0.6,4,2.1c1.9,2.3,3.8,5.8,6.3,2.9c2.5-2.9,1.6-7.8,1.7-12c0.4-9.4-5-15-5.8-23.8
						c-1.5-16.7-3-18.6-14.4-24.4c2.3,10.7,5.4,21.4-1,30.4c-3.1-2.6-2.4-10.5-7-10.8c1.3,10.5,7.6,19.3,3.3,31.1
						c-1.2,3.6-2.4,9.9,1.3,10.8C1329.4,1181.3,1323.8,1172.1,1328.6,1170.7z M1005.9,883.6c4,40.4,3.8,81.5,8.1,121.8
						c1.2-16.5,6.9-33,3.9-48.4c-3.5-18-3.8-32,3-48.2c6.2-14.7-1.5-29.4-3.6-46.4c-5.7,17,5.8,33-1.9,49.2
						C1012.8,900.5,1010.7,891.2,1005.9,883.6z M1177.9,897.6c3.5-8.3,3.4-15,4.6-21.4c0.7-3.9,2.4-5.3,5-3.9
						c1.2,0.6,2.3,2.8,1.3,4.2c-7.8,12.1,4.4,22.3,1.2,34.8c-1.3,5.3,3,2.4,5,0.8c3.3-2.8,3-11,7.1-12.3c8.9-2.8,4.5-9.2,1.5-14.7
						c-2.3-4.4-5.1-7.8-5.2-14.4c-0.3-19.7-2.5-21.7-13.4-10.8c-1.9,1.9-4.1,1.8-5.7,3.4c-1.9,1.9-5.3,5.5-3.9,8.4
						C1179,879.1,1177.5,887,1177.9,897.6z M170.4,2058.1c-0.4,1.3-0.8,2.6-1.2,3.9c5.1,11.2,101.1,83.5,115,84.9
						C244.8,2116.1,207.6,2087.1,170.4,2058.1z M1005.3,424.5c-1.2-0.3-2.5-0.8-3.8-1.1c-1.6,43.4-9.1,84.6-17.8,126.7
						c5.3-0.6,6.8-4.9,8-8.3c3.6-10.5,4.7-22.8,8.5-33.5c2.3-6.5,2.2-14.9,3.9-22c2-8.6-9.7-21.4,3.1-26.5
						c-4.4-11.8,3.8-19.7,4.1-30.4c-3.2,0-2.9,7.9-6.7,6c0.3-1.9,0.7-3.6,0.8-5.5C1005.7,428,1005.4,426.2,1005.3,424.5z
						 M14.8,1179.9c-0.8,0-1.7,0-2.5,0.2c1.7,105.7,3.4,211.1,5.2,316.8c0.8,0,1.5,0,2.3-0.2C21.8,1390.9,12.6,1285.7,14.8,1179.9z
						 M1489.7,1061c5.1-5.7,2.1-12.3,3.5-17.6c6.8-25.7,3.8-52.4,2.3-79c-0.3-6.5-3.4-12.3-6.5-11.8c-3.9,0.8-6.2,7.6-5,14.6
						C1489.2,997.4,1489.4,1028.4,1489.7,1061z M1036.1,708.4c4.7-54.7,3.3-109.7,2.3-164.7C1035.4,598.4,1033.1,653.1,1036.1,708.4
						z M1131,1068.4c0.1-0.5,0.3-0.8,0.2-1.3c-0.3-5.7-3.8-7.1-5.6-10.8c-4.6-9.5-4-12.9,3.1-16.8c2.4-1.3,2-4.4,2.1-7.1
						c1.3-29.3-0.3-33.3-17.1-43c-0.4-0.3-1,0.3-2.1,0.6c0.5,7.3,4.3,11.3,6.3,17c1.6,4.7,3.1,8.4,1.5,14.6
						C1114.4,1040.4,1119,1058.1,1131,1068.4z M71.2,1027.3c-18.2,16.5-36.6,50.5-45.5,84C39.3,1081,58.3,1058.5,71.2,1027.3z
						 M1576.9,873.9c7.4,31.9,9,65,17.2,95.9c5-6.5-1.9-19.3,7.1-22.7c-9.2-1.5-9.7-12.6-11.4-21.7c-2-11.2-2-22.8-1.7-34.3
						C1588.3,880.1,1585.5,873.9,1576.9,873.9z M1341.5,1077c2.4,28.2,15.4,40.9,27.6,54.7C1362.3,1110.6,1359.4,1084.6,1341.5,1077
						z M903,615.1c-6.6,15.2-7.4,34.6-17.8,45.5c-3.5,3.7-2.7,10.8-0.3,15.4c3.5,6.5,6.8,0.2,7.7-3.7c2.5-11.3,10.6-18.4,9.3-32.5
						c-0.1-1.5,0.4-3.9,1.2-4.9C908.4,627.2,908.4,625.6,903,615.1z M1172.1,729.9c-2.1-12.9-4.2-25.4-6.3-37.9
						c-0.6-3.4-0.2-10-3-8.7c-3.4,1.6-8.3-0.8-10.2,6.6c-0.4,1.8-0.9,3.6,0.2,5.3c4.5,7.1,4.5,7.1,6,17.8c1.2,8.6,2.8,17,8.9,19.9
						C1169.6,733.8,1172,735.1,1172.1,729.9z M1074.9,594.7c0.6-32.4-4.5-65.5-12.3-76.5C1066.1,543.1,1060.6,571.2,1074.9,594.7z
						 M1435.1,917.8c-1.2,10-2.1,18-3,25.9c-0.4,3.7-1.2,8.7,1.7,10c4.6,2.1,5.8,7,6.3,13.6c0.3,3.7,1.5,8.3,4.7,6.5
						c2.9-1.6,4.4-6.3,2-10.4c-3.2-5.7-2.1-9.7,0-15c1.2-2.9,1.9-8.6-0.3-10.5C1441.4,933.1,1438.8,925.7,1435.1,917.8z
						 M1425.6,1254.6c-22.2-23.8-48.5-26.5-73.3-36.9C1377.9,1224.7,1399.7,1250.1,1425.6,1254.6z M920.1,859.9
						c0.1-1.3,0.7-5.3-2.1-6.1c-3.2-1-2.9,3.4-2.7,6.8c0.7,13.1-7.5,21.4-6.4,36.4c0.7,9.4-2,22.2-4.7,33c-0.8,3.4-2,8.4,1.3,9.5
						c3,1.1,3.9-3.9,4.5-7.4C913.3,908.6,916.5,885.3,920.1,859.9z M1261.3,1038.8c-4.7,12.5-8.2,26.4-4.6,35.3
						c4.8,11.6,3.9,23.1,5.1,34.9c0.2,1.8,0.1,3.9,1.6,4.4C1270,1089,1267.6,1064.8,1261.3,1038.8z M712.2,368.8
						c-5.8-3.9-10.2-6.3-14.2-9.9c-10.7-9.7-14-9.2-23.8,3.7c-8.3,11-17,21.4-25.4,32.2c-3.1,4-7.1,7.1-8.5,16.7
						c10-13.8,20.6-22.8,29.2-36.1c10.7-16.7,18.9-18.4,32.3-9.1C704.3,368.1,706.6,372.2,712.2,368.8z"/>
					<path d="M399.5,1045.1c5.4-18,11.3-30.4,20.2-38.3c5.1-4.5,8.9-11.3,13.5-16.8c1.5-1.9,3.2-3.1,4.7,0.2c1.1,2.6,1,6.1-0.7,7.8
						C423.8,1010,415.6,1032.2,399.5,1045.1z"/>
				</g>
			</g>
		</g>
	</g>
</g>
</svg>
